<svg width="135" height="180" xmlns="http://www.w3.org/2000/svg" xmlns:svg="http://www.w3.org/2000/svg">
  <path clip-rule="evenodd" d="m48.9,175.51c0.64,0.2 1.34,0.58 1.67,1.09c0.81,-0.97 1.93,-3.25 1.44,-5.35c-1.52,0 -2.93,2.39 -3.11,4.26zm3.92,-6.46c0.58,1.12 0.89,3.11 0.73,4.32c0.21,0.02 0.48,0.1 0.72,0.21c0.47,-1.17 0.96,-4.01 -0.1,-5.89c-0.49,0.08 -1.22,0.62 -1.36,1.36l0.01,0zm3.75,1.42c0.62,-1.83 0.44,-4.04 -0.21,-4.9c-0.16,-0.23 -1.11,0.3 -1.28,0.96c0.52,0.89 1.03,2.71 0.97,3.84a1.3,1.3 0 0 1 0.52,0.1zm43.43,-2.53c0.85,0.14 1.65,0.49 2.12,0.79c0.42,-0.69 1.47,-3.49 0.87,-5.02c-1.73,0.16 -3.02,3.01 -2.99,4.23zm3.95,-6.09c0.43,0.77 0.78,2.28 0.81,3.25c0.22,0.01 0.51,0.01 0.72,0.07c0.62,-1.87 0.41,-4.14 -0.21,-4.97c-0.37,-0.12 -1.03,0.86 -1.32,1.65zm3.52,-1.35c0.21,-1.04 0,-2.99 -0.55,-3.72c-0.39,-0.24 -0.85,0.5 -1.05,1.39c0.45,0.65 0.99,1.66 1.11,2.33c0.16,-0.01 0.31,-0.01 0.49,0zm-39.89,-54.43c-2.42,0.89 -5.46,2.94 -5.55,3.52c-0.2,1.33 -0.28,3.26 -0.28,4.7c1.58,-0.91 2.03,-2.55 3.8,-3.96c3.21,-2.52 4.76,-2.88 4.59,-3.25c-0.37,-0.68 -1.87,-1.01 -2.56,-1.01zm34.71,47.31c-4.84,-0.5 -9.49,3.83 -12.54,1.92c-1.38,-0.88 -3.24,-2.88 -4.6,-4.87c-0.85,-1.24 -3.26,-4.83 -3.04,-6.27c0.09,-0.6 1.05,-1.04 2.74,-2.12c2.94,-1.85 5.59,-3.72 8.04,-5.71c2.99,-2.4 7.58,-6.04 7.62,-10.76c0.04,-3.25 -2.11,-6.79 -3.79,-8.96c-2.95,-3.82 -8.03,-7.45 -12.86,-10.21c-2.13,-1.2 -6.1,-3.28 -8.58,-4.26c-2.44,1.37 -3.64,1.74 -5.71,2.85c1.52,0.61 2.76,1.59 2.52,2.42c-0.16,0.52 -0.54,0.63 -2.35,1.83c-1.06,0.71 -2.36,1.73 -2.96,2.28c-1.33,1.23 -2.06,2.59 -3.2,3.94c-0.69,0.81 -1.12,1.12 -1.82,1.63c0,0.69 -0.04,1.31 -0.08,2.18c7.89,0.22 15.03,2.5 18.48,6.91c0.49,0.63 1.25,1.73 1.56,2.54c1.55,4.12 -1.08,7.47 -3.29,8.93c-2.19,1.45 -7.19,2.33 -8.6,3.66c-1.08,1.03 -1.18,2.88 -2.47,4.47c-0.58,0.73 -1.27,1.15 -2.08,1.62c0.44,0.83 2.13,1.57 3.34,1.44c0.46,-0.46 0.93,-0.77 1.41,-1.5c0.37,-0.56 0.7,-1.46 0.67,-2.45c-0.01,-0.24 0.34,-0.52 0.5,0.31c0.78,4.1 -3.98,4.57 -3.12,9.16c0.87,-0.59 2.27,-1.28 3.77,-0.91c0.37,-0.8 0.91,-1.27 1.35,-1.95c0.26,-0.41 0.56,-1.05 0.53,-2.23c-0.01,-0.3 0.39,-0.41 0.55,0.63c0.47,2.95 -2.65,3.7 -1.36,8.37c0.84,-0.72 2.08,-1.04 3.27,-1.01c0.31,-0.67 1.07,-1.34 0.89,-2.82c-0.04,-0.33 0.31,-0.66 0.57,0.44c0.52,2.18 -1.33,3.01 -0.38,5.9c3.29,-1.34 4.13,1.04 5.59,2.92c0.84,1.08 1.93,2.77 2.8,3.44c2.21,1.69 8.4,0.24 13.1,0.73c0.3,-2.55 1.95,-4.83 3.96,-5.31c-0.95,-3.16 -5.12,-3.91 -7.18,-1.79c-0.31,0.32 -0.11,-0.53 0.49,-1.05c1.98,-1.66 5.52,-1.15 7.27,1.14c0.35,-0.87 1.02,-1.62 1.54,-1.65c-1.48,-3.14 -5.79,-3.84 -8.16,-1.91c-0.19,0.14 -0.25,-0.27 0.41,-0.84c1.83,-1.61 5.75,-1.49 8.06,0.97c0.16,-0.9 0.62,-1.57 1.09,-1.57c-0.64,-1.03 -2.38,-2.33 -3.95,-2.48zm26.06,-67.49c-1.5,1.01 -1.5,3.38 -1.24,4.89c0.79,-0.14 1.45,-0.12 2.14,0.1c0.48,-1.57 0,-4.08 -0.9,-4.99zm2.8,1.11c0.04,-1.8 -0.94,-4.3 -2,-5.21c-0.51,0.08 -0.62,1.3 -0.56,2.1c1.01,0.87 1.68,2.14 2,3.2c0.19,-0.04 0.41,-0.09 0.56,-0.09zm-1.57,-6.53c0.72,0.75 1.46,1.85 1.8,2.82c0.12,-0.03 0.32,-0.09 0.45,-0.09c0.09,-1.27 -0.7,-3.54 -1.75,-4.45c-0.46,-0.13 -0.62,1.14 -0.5,1.72zm-5.99,-42.38c-1.01,-1.58 -3.11,-2.18 -4.2,-2.08c-0.38,1.54 1.62,3.32 2.96,3.81c0.43,-0.98 0.86,-1.47 1.24,-1.73zm-2.65,-3.99c-0.96,-0.92 -3.41,-2.07 -5.18,-1.48c-0.15,0.71 0.85,1.68 1.57,2.11c0.87,-0.33 2.09,-0.47 3.4,-0.17a5.01,5.01 0 0 1 0.21,-0.46zm-9.81,4.81c-0.65,-1.8 -0.54,-3.14 0.18,-4.69c0.35,-0.76 1.16,-1.62 1.7,-2.03c-0.95,-0.21 -1.31,-0.71 -1.43,-1.14c-5.17,2.77 -2.47,8.12 -3,12.88c-0.33,2.96 -4.1,4.02 -6.58,5.57c-2.13,1.34 -4.22,2.77 -5.69,4.27c2.67,6.31 0.84,7.7 3.82,10.74c-0.51,0.61 -1.46,1.04 -2.16,1.04c-0.04,2.67 -0.28,5.1 -0.97,7.49c2.18,-0.89 3.8,0.58 5.61,-1.19c-1.67,-1.27 -1.73,-3.63 -1.31,-4.94c0.25,-0.76 0.58,-0.67 0.58,-0.45c0,0.38 0.04,0.73 0.13,0.97c0.97,0.25 3.03,0.35 4.39,-0.54c-2.33,-3.97 2.12,-7.46 5.48,-9.66c2.34,-1.52 5.7,-3.2 7.37,-5.45c2.25,-3.03 1.14,-6.32 2.58,-10.81c-1.69,-0.85 -3.94,-2.52 -3.69,-4.93c-1.78,0.23 -3.88,2.43 -2.73,6.17c0.19,0.65 -0.2,0.46 -0.58,-0.14c-1.46,-2.74 -0.15,-5.87 1.51,-6.79c-0.93,-0.59 -1.71,-1.76 -1.62,-2.38c-2.7,0.98 -3.56,3.33 -2.97,6.44c0.09,0.46 -0.29,0.47 -0.62,-0.43zm5.64,-8.44c-0.95,-0.45 -2.77,-0.7 -4.02,0.02c-0.4,0.36 0.11,0.86 1.28,1.1a6.88,6.88 0 0 1 2.67,-0.64c0,-0.19 0.03,-0.27 0.07,-0.48zm-33.38,-4.52c-0.11,-0.05 -0.18,0.18 -0.34,0.42c-0.22,0.34 -0.59,0.85 -1.11,1.3c0.5,-0.03 1.48,0.04 1.94,0.15c0.06,-0.68 -0.34,-1.8 -0.49,-1.87zm-10.17,1.68c0.62,2.07 4.31,0.1 7.19,-0.1c0.9,-0.74 1.61,-1.5 1.99,-2.16c-3.52,-0.71 -7.4,-0.25 -9.18,2.26zm10.92,-6.65c0.28,0.66 0.47,1.39 0.51,1.66c0.04,0.29 0.03,0.54 0.18,0.46c0.5,-0.25 1.36,-1.39 1.5,-2.17c-0.6,0.1 -1.68,0.09 -2.19,0.05zm-11.59,4.69c2.42,-2 5.92,-2.76 11.07,-1.88c-0.05,-0.88 -0.54,-2.16 -0.95,-2.77c-5.15,-0.85 -10.01,-0.93 -10.12,4.65zm-15,-23.54c-7.7,-0.23 -10.38,0.98 -15.11,1.18c-0.91,-0.02 -1.64,-0.27 -1.91,-0.39c-0.23,0.52 -0.32,1.84 -0.01,2.47c-2.6,1.55 -2.91,4.59 -6.33,4.04c-0.22,0.93 0.35,2.22 1.01,2.7c0.35,-0.14 1.07,-0.39 0.97,-0.04c-1.39,3.92 -1.11,5.6 -1.46,7.57c-0.21,1.18 -1.89,2.27 -3.42,2.57c-0.11,1.04 0.55,2.61 2.01,2.87c0.87,-1.78 2.17,-2.05 1.94,-1.51c-0.37,0.9 -0.68,2.51 -0.71,3.67c-0.09,3.87 0.9,7.79 2.13,10.66c2.41,5.6 5.4,10.07 1.25,12.69c0.54,1.3 3.22,2.2 5.21,1.41c0.82,-2.16 0.3,-3.78 0.19,-4.31c-0.04,-0.19 0.15,-0.23 0.35,-0.07c1.21,1.02 1.28,3.02 1.05,4.61c-0.62,4.21 -4.21,9.41 -1.73,14.3c0.74,-0.68 1.89,-1.23 2.93,-1.46c0.17,-2.56 0.98,-4.36 2.46,-5.43c0.87,-0.63 1.02,-0.23 0.78,0.03c-1.82,2.23 -1.7,6.43 -1.21,10.19c0.61,4.7 -0.87,7.47 -2.29,8.21c1.74,1.1 4.63,0.43 6.12,-0.34c1.09,-0.57 2.78,-1.97 3.42,-3.26c-1.64,-2.82 -1.75,-5.46 -1.33,-7.15c0.34,-1.4 1.12,-1.88 0.98,-1.21c-1.05,5.93 4.59,8.65 4.47,14.43c2.92,-0.97 4.2,-4.49 3.96,-7.81c0.05,-0.45 0.4,-0.23 0.57,0.22c1.66,4.73 -1.35,11.32 -6.95,10.75c0.79,-2.8 -0.13,-6.07 -0.94,-7.67c-0.72,1.48 -2.08,2.72 -3.37,3.45c-0.18,1.47 -0.51,2.76 -0.76,3.83c-0.93,3.88 -2.55,6.57 -4.96,9.04c-5.28,5.4 -7.23,5.84 -10.67,10.84c-0.76,0.77 -3.03,2.01 -4.35,2.53c-10.44,4.11 -19.19,-1.48 -18.49,-12.67c0.28,-4.49 2.63,-10.41 4.5,-14.68c5.47,-12.5 10.61,-22.96 11.27,-32.5c0.54,-7.84 -2.83,-15.66 -10.99,-15.74c-5.54,-0.06 -10.89,4.49 -11,13.6c-0.07,5.38 0.05,9.43 -2.25,13.1c-0.49,0.79 -0.73,1.17 -1.4,2.03c3.18,0.53 6.54,-1.27 8.77,-3.83c0.21,0.38 0.55,0.98 0.7,1.57c2.35,-2.25 2.72,-6.4 1.86,-9.7c1.53,0.44 2.91,-0.49 3.46,-1.79c-3.54,-0.46 -5.91,-3.82 -5.35,-7.5c0.33,-2.18 2.25,-4.56 4.86,-4.87c6.81,-0.8 8.8,6.1 8.71,12.64c-0.12,8.29 -5.13,17.45 -9.57,26.74c-3.57,7.48 -7.62,15.07 -8.04,22.18c-0.45,7.88 3.16,21.97 22.78,18.92c0.79,-2.29 1.76,-3.18 2.34,-2.92c0.19,0.1 0.05,0.46 -0.05,1.2c-0.36,2.42 -0.48,3.94 -0.36,6.53c0.23,5.1 2.46,10.2 2.72,13.89c0.41,5.83 -2.61,6.51 -7.38,7.04c-2,0.23 -4.99,0.16 -6.82,1.03c-1.06,0.51 -1.76,3.15 -2.79,4.47c-1.02,1.31 -2.42,1.96 -4.12,2.29c0.52,1.32 2.28,2.26 4.21,2.31c0.7,-0.52 1.46,-1.76 1.78,-3.24c0.07,-0.3 0.44,-0.53 0.4,0.62c-0.1,3.07 -2.93,6.42 -6.1,6.89c0.57,1.47 2.81,2.58 4.57,2.37c1.37,-0.73 2.46,-2.04 2.96,-3.89c0.13,-0.53 0.46,-0.29 0.44,0.4c-0.04,1.83 -0.98,3.33 -2.23,4.47c-1.24,1.14 -2.04,2.67 -1.64,4.45c0.82,-0.41 2.41,-0.49 3.6,-0.23c0.6,-0.56 1.45,-1.51 1.69,-2.88c0.08,-0.45 0.55,-0.35 0.47,0.72c-0.19,2.54 -2.29,3.71 -1.75,6.12c4.99,-2.39 5.54,6.48 9.42,9.15c3.22,2.22 9.2,0.89 14.63,1.28c0.39,-2.39 1.91,-4.83 4.03,-5.28c-0.91,-3.42 -4.87,-3.29 -6.68,-2.11c-0.39,0.26 -0.28,-0.26 0.16,-0.63c2.2,-1.63 5.39,-1.13 6.91,0.75c0.37,-0.69 1.11,-1.26 1.7,-1.36c-1.56,-3.25 -5.29,-3.87 -7.99,-2.22c-0.49,0.32 -0.34,-0.39 0.52,-0.89c3.23,-1.87 6.66,-0.41 8.18,1.99c0.31,-0.51 0.98,-1.15 1.49,-1.11c-0.88,-2.11 -3.19,-3.61 -6.12,-3.55c-5.1,0.09 -9.39,3.47 -11.25,0.86c-2.1,-2.96 -4.71,-8.33 -4.91,-14.75c0,-0.54 0.02,-1.06 0.5,-1.23c3.94,-0.89 7.67,-1.64 11,-2.71c3.59,-1.17 7.15,-2.41 9.72,-5.42c2.73,-3.2 3.48,-10.42 3.94,-16.28c0.22,-2.8 0.5,-6.95 0.71,-10.02c0.35,-4.91 1.39,-8.06 3.31,-8.96c0.49,-0.22 0.73,0.01 0.35,0.69c-0.49,0.81 -0.89,2.33 -1.08,3.71c0.86,-0.67 1.96,-1.41 2.73,-1.82c2.52,-1.37 4.21,-2.11 6.99,-3.57c2.66,-1.39 5.2,-3.24 7.1,-4.72c1.2,-0.95 2.6,-2.08 3.8,-3.7a6.9,6.9 0 0 1 -0.76,-1.26c-1.35,1.83 -4.14,3.34 -6.33,3.15c0.58,-1.83 -0.08,-4.4 -1.62,-5.67c-1.71,-1.39 -2.77,-2.18 -3.85,-3.36c-3.58,-3.92 -0.52,-12.19 -4.19,-17.18c-0.26,-0.51 0.3,-0.37 0.9,0.2c2.13,2.02 2.54,5.13 2.98,8.25c0.33,2.34 0.47,5.13 1.58,6.87c1.99,3.12 6.5,3.8 6.31,8.49c1.43,-0.38 3.21,-1.77 3.28,-2.99c-0.07,-0.56 -0.35,-1.83 -1.11,-2.4c-0.19,-0.14 -0.07,-0.43 0.5,-0.25c1.06,0.34 1.58,1.64 2.04,2.6c0.49,1.05 1,1.99 1.73,2.83c1.3,1.5 2.9,2.27 3.12,4.71c1.21,-0.37 2.82,-1.62 2.97,-3.23c-0.64,-1.82 -0.23,-3.53 -2.12,-4.79c-0.25,-0.16 -0.14,-0.58 0.89,-0.16c2.42,1.02 2.05,3.91 3.22,5.49c0.78,1.05 1.72,1.94 3.31,2.29c0.17,-1.48 0.8,-3.08 2.11,-3.93c-0.12,-0.82 -0.25,-1.31 -1.18,-2.04c-0.24,-0.19 -0.2,-0.59 0.86,-0.05c2.19,1.11 1.55,4.23 4.48,5.47c0.83,-2.59 3.99,-1.69 6.98,-0.92c1.49,0.38 3.33,0.84 4.93,0.92c5.95,0.29 6.94,-3.71 12.15,-5.01c-0.37,-2.59 0.17,-4.98 1.83,-5.97c-2.18,-2.58 -5.78,-1.26 -7.01,0.5c-0.27,0.35 -0.23,-0.27 0.18,-0.87c1.57,-2.36 4.75,-2.61 6.69,-1.48c-0.04,-0.81 0.27,-2.13 0.76,-2.17c-1.42,-1.6 -5.6,-2.25 -7.86,0.48c-0.28,0.31 -0.21,-0.28 0.12,-0.77c1.65,-2.25 5.38,-2.89 7.9,-1.01c-0.02,-0.53 0.25,-1.66 0.87,-1.69c-1.07,-1.26 -3.19,-2 -5.27,-1.8c-5.99,0.6 -7.63,7.22 -14.09,6.67c-1.5,-0.12 -2.94,-1.08 -5.84,-2.07c-1.51,-0.52 -3.37,-1.04 -5.06,-1.43c-4.62,-1.08 -8.92,-1.14 -11.3,-4.26c-0.8,-1.05 -1.5,-2.32 -1.77,-4.18c-0.15,-0.87 0.19,-1.26 0.43,-0.68c1.42,2.79 2.9,5.37 6.42,6.05c1.44,-2.74 2.52,-7.41 2.34,-11.45c-1.53,-0.69 -1.52,-1.38 -2.01,-1.59c0.22,3.07 -0.94,6.28 -1.9,7.24c-0.44,-2.88 -2.83,-5.01 -5.29,-5.68c-0.31,-0.08 -0.36,-0.6 0.98,-0.51c0.9,0.06 3.03,0.62 3.96,1.86c0.85,-2.96 0.34,-5.73 -0.71,-8.42c-0.56,-1.46 -1.92,-3.36 -3.42,-4.46c-0.33,-0.24 -0.19,-0.61 0.87,-0.06c2.74,1.41 4.85,4.17 5.31,8c1.45,0.84 2.05,2.73 4.09,2.19c-1.74,-1.94 -0.87,-5.2 -3.61,-9.95c-1.46,-2.52 -3.41,-4.33 -6.7,-5.94c-4.05,-1.99 -8.93,-3.39 -12.05,-4.64c-3.28,-1.31 -5.09,-2.76 -5.52,-7.48c-1.1,-0.5 -1.74,-1.2 -2.39,-2.02c-0.6,0.52 -0.97,1.66 -0.99,2.41c-2.13,-1.03 -3.27,-3.19 -3.46,-5.08c-0.67,0.1 -2.02,3.94 -6.94,2.11c2.92,-3.06 -1.09,-5.47 2.07,-9.1c0.59,-0.74 1.48,-0.93 1.09,-0.38c-2.88,4.12 0.6,5.53 -0.75,8.22c3.12,0.3 3.31,-3.83 6.04,-3.76c-0.37,1.83 0.05,4.31 1.16,5.09c0.66,-1.15 1.46,-1.91 2.67,-2.38c0.53,2.26 2.13,3.47 4.08,3.91c2.94,0.65 6.26,-1.09 8.66,-0.75c1.46,0.2 2.76,1.05 3.27,2.28c1.21,-1.18 2.31,-5.63 1.83,-5.97c-4.69,-2.93 -12.29,3.35 -14.51,-1.96c-0.4,-0.93 -0.59,-2.13 -0.42,-3.19c0.65,-4.28 3.49,-6.35 8.59,-5.98c2.24,0.16 7.14,1.21 8.45,0.24c1.08,-0.8 0.78,-3.82 0.12,-5.15c-1.31,-0.35 -2.84,-1.24 -2.76,-2.21c0.08,-0.86 0.88,0.96 2.64,0.41c0.49,-0.22 0.76,-2 0.44,-2.1c-2.82,-1.05 -6.7,-1.72 -10.12,-1.36c-0.51,1.53 -1.72,1.69 -1.82,2.86c-0.17,2.02 -0.8,3.67 -1.66,4.33c-0.33,0.22 -0.31,-0.12 -0.11,-0.76c0.24,-0.78 0.52,-2.09 0.15,-2.9c-0.78,-1.71 -4.14,-1.47 -4.21,-3.37c-0.05,-0.77 0.4,-0.69 3.72,0.09c1.4,0.32 1.54,0.35 1.74,-0.08c0.56,-1.24 -1.35,-1.91 -3.03,-2.31c-5.05,-1.22 -9.7,-1.06 -11.67,-0.3c1.99,0.95 2.51,2.85 1.88,3.76c-0.44,0.58 -0.13,-0.94 -2.37,-2.29c-2.45,-1.47 -6.78,-1.71 -7.62,-0.52c-0.48,0.67 -0.61,2.66 -0.46,3.56c0.25,1.56 0.75,3.08 2.47,4.23c2.36,1.58 3.95,0.7 3.73,1.2c-0.5,1.07 -3.58,0.92 -5.38,-0.51c-1.5,-1.18 -2.61,-2.75 -2.9,-4.98c-0.2,-1.58 0.01,-3.96 0.73,-4.82c0.98,-1.16 3.77,-1.42 6.37,-0.91c2.09,-0.64 4.87,-1.05 7,-0.9c-1.49,-1.25 -4.45,-1.89 -7.06,-1.97zm30.13,19.07c-0.51,1.05 -1.41,2.4 -2.37,2.86c1.52,0.28 4.11,0.82 6.02,0.61c2.39,-0.26 3.83,-2.48 2.56,-4.73c-0.09,-0.15 -0.05,-0.6 0.54,-0.28c2.96,1.6 2.34,5.91 -0.74,7.02c-2.95,1.05 -6.61,-0.53 -9.19,-0.96c0.38,0.69 0.65,1.57 0.7,2.08c0.72,0.19 2.53,0.71 2.46,1.38c-0.26,2.04 -0.65,4.49 -1.5,6.38c-0.75,1.69 -2.12,3.64 -3.78,3.86c0.34,-5.84 -6.17,-1.81 -9.85,-3.02c-0.33,4.15 6.19,5.26 13.14,8.23c3.62,1.55 7.17,3.47 9.53,7.07c2.76,-2.09 5.09,-3.35 8.73,-5.2c1.37,-0.69 2.63,-1.33 2.89,-2.62c0.21,-1.03 0.1,-3.75 -0.11,-5.36c-1.09,-8.1 6.78,-12.57 12.08,-8.46c-0.15,0.24 -0.3,0.61 -0.34,1.01c1.64,0.42 3.38,1.48 4.5,2.56c-0.35,0.39 -0.62,0.81 -0.78,1.29c1.31,0.57 3.05,2 3.6,3.43c-0.66,0.58 -1.44,1.76 -1.72,2.35c-0.99,2.08 -1,4.72 -1.44,7.1c-0.39,2.06 -1.19,4.36 -2.51,5.93c-2.88,3.4 -8.8,5.29 -11.72,8.88c-0.99,1.22 -1,3.85 0.72,4.47c-1.65,2.08 -4.4,2.4 -6.18,2.19c0.31,1.3 1.77,2.02 2.51,2.1c-2.48,4.95 -6.85,2.47 -8.98,3.82a13.38,13.38 0 0 1 -0.56,1.46c3.6,0.62 7.42,1.89 9.6,2.78c1.91,0.77 4.81,2.48 7.51,1.48c1.65,-0.6 3.22,-2.3 4.72,-3.43c1.99,-1.49 4.19,-3.21 8.36,-2.71c3.71,0.44 7.62,3.96 7.3,9.71a3.6,3.6 0 0 0 -1.08,0c0.17,0.89 0.39,2.83 0.23,4.01a3.83,3.83 0 0 0 -1.31,0.02c0.09,1.06 -0.22,3.25 -0.93,4.55c-1.06,-0.36 -2.66,-0.62 -4.06,-0.17c-3.91,1.26 -6.51,5.48 -12.7,4.96c-1.46,-0.12 -3.34,-0.45 -4.8,-0.79c-1.38,-0.31 -3.38,-1.05 -4.34,-0.91c-1.12,0.16 -1.18,0.88 -1.39,2.09c-2.75,-0.46 -4.37,-2 -4.78,-3.56c-1.22,0.87 -1.12,2.44 -1.14,3.86c-2.37,-0.22 -4.52,-1.09 -5.71,-2.8c-0.86,1.72 -3.08,3.36 -5.66,3.3c0.15,-1.08 -0.02,-2.82 -1.19,-3.93c-1.56,1.92 -3.31,3.38 -5.84,5.18c4.71,2.36 10,5.45 14.61,9.39c4.19,3.59 9.14,9.26 9.41,15.04c0.28,6.23 -4.2,9.83 -7.8,12.48c-3.55,2.63 -6.52,4.75 -9.91,7.03c-0.32,0.19 -0.3,0.37 -0.21,0.62c0.81,2.36 2.02,4.69 3.38,6.42c0.76,0.99 2.3,2.8 3.83,2.84c2.36,0.08 5.71,-2.07 8.41,-2.41c5.9,-0.75 10.17,4.19 8.29,10.62c-0.37,-0.19 -0.89,-0.27 -1.22,-0.23c0.06,1.93 -0.58,3.96 -1.14,5.07a3.74,3.74 0 0 0 -1.4,-0.54c-0.29,1.6 -1.17,3.73 -2.26,4.79c-0.77,-0.68 -2.01,-1.04 -2.72,-1.12c-8.38,-0.35 -12.26,0.76 -15.25,-1.17c-0.95,-0.62 -2.02,-2.27 -2.87,-3.4c-0.9,-1.17 -1.89,-2.99 -2.82,-3.22c-1.17,-0.29 -1.9,0.17 -2.5,0.78c-0.83,-1.05 -1.35,-2.65 -1.12,-3.99c-1.08,-0.27 -2.38,0.65 -3.12,1.39c-0.92,-1.24 -1.45,-3.52 -1.15,-5.42c-1.45,-0.33 -2.87,0.65 -3.66,1.57c-1.43,-2.33 -1.13,-4.88 -0.26,-6.33c-1.97,-0.4 -3.69,-1.76 -4.38,-3.67c3.35,-1.43 3.82,-3.57 4.92,-5.96c1.46,-3.15 10.76,-3.51 11.75,-7.95c0.31,-1.42 -0.16,-3.27 -0.66,-4.2c-2.5,-4.64 -10.42,-6.1 -17.2,-6.05c-0.27,3.84 -0.68,7.12 -1.44,9.97c-0.71,2.67 -1.9,5.24 -3.57,7.12c-2.23,2.48 -6.13,3.88 -9.68,4.93c-3.56,1.06 -6.68,1.76 -10.43,2.64c-0.61,0.06 0.31,6.43 2.23,10.55c1.04,2.24 1.44,3.45 3.3,3.17c2.33,-0.36 5.5,-1.92 8.44,-1.81c5.99,0.21 10.18,6.57 6.89,13.07c-0.38,-0.23 -0.67,-0.38 -1.01,-0.43c-0.22,1.46 -0.84,2.91 -1.44,3.88a4.32,4.32 0 0 0 -1.35,-0.66c-0.59,1.83 -1.78,3.37 -2.8,4.05c-0.75,-0.75 -1.76,-1.45 -3.22,-1.5c-9.04,-0.34 -12.94,0.98 -16.62,-2.36c-1.2,-1.09 -2.14,-2.89 -2.93,-4.71c-1.54,-3.57 -2.76,-5.52 -5.39,-2.92c-1.09,-1.64 -1.21,-3.71 -0.5,-5.07c-1.18,-0.38 -2.79,0.14 -3.75,0.61c-0.96,-1.68 -0.83,-4.44 0.2,-5.8c-2.49,-0.25 -4.85,-2.3 -5.3,-5.05c1.41,0.04 3.21,-0.72 4.2,-1.7c-2.3,-0.47 -4.15,-2.48 -4.69,-5.16c1.53,0 3.26,-0.34 4.24,-1.1c2.19,-1.72 1.5,-5.18 4.9,-6.31c4.08,-1.37 12.06,0.48 12.29,-4.62c0.1,-2.13 -1.45,-6.2 -2.12,-8.74a33.68,33.68 0 0 1 -1.1,-8.65c-18.83,1.8 -24.86,-10.67 -24.33,-20.79c0.44,-8.26 3.41,-14 8.2,-23.53c5.9,-11.75 10.19,-20.2 9.83,-28.27c-0.17,-3.68 -1.52,-8.02 -4.27,-8.78c-5.23,-1.47 -7.23,4.47 -4.69,7.53c0.86,1.03 2.51,1.79 4.5,1.58c0.07,2.73 -1.32,4.41 -3.26,4.87c0.68,5 -1.37,9.23 -4.95,11.18c-0.04,-0.57 -0.19,-1.03 -0.34,-1.59c-2.56,2.01 -8.08,4.11 -11.67,1.69c1.06,-1.2 1.6,-1.84 2.28,-2.77c1.4,-1.93 2.57,-4.25 2.74,-6.91c0.18,-2.78 0.29,-5.51 0.35,-7.78c0.17,-7.18 4.93,-14.59 13.69,-13.94c7.38,0.55 11.56,6.58 11.94,14.64c0.43,9.3 -4.26,19.96 -10.62,34.87c-2.53,5.92 -4.88,12.08 -4.69,16.83c0.23,5.84 4.14,9.92 9.65,10.07c3.36,0.08 7.51,-1.54 9.25,-3.31c0.24,-0.25 0.48,-0.6 1.42,-1.9c4.21,-5.84 12.83,-9.61 13.34,-18.81c-2.89,0.89 -6.6,-0.89 -7.23,-3.01c2.58,-0.95 4.42,-3.04 3.78,-8.4c-0.05,-0.5 -0.11,-1.22 -0.14,-1.83c-1.42,0.23 -2.59,1.25 -3.26,2.34c-4.68,-4.82 -2.26,-10.98 -0.68,-15.27c-3.59,0.17 -6.48,-2.58 -6.85,-5.03c1.74,-0.23 2.84,-1.5 2.8,-3.03c-0.04,-1.26 -0.92,-3.18 -1.62,-4.69c-1.98,-4.31 -3.89,-8.65 -3.78,-14.54c-2.58,-1.21 -3.71,-4.22 -3.64,-6.59c2.21,-0.17 3.78,-1.22 3.85,-2.63c0.05,-1.12 0.24,-3.22 0.71,-4.61c-0.85,-0.82 -2.2,-3.34 -0.87,-6.29c0.94,0.22 2.42,0.26 3.32,-0.23c0.39,-0.22 1.15,-1.58 2.45,-2.53c-0.19,-0.92 -0.01,-2.97 1.01,-4.28c0.63,0.29 1.66,0.57 2.66,0.67c4.36,0.44 14.73,-2.64 22.39,0.25c1.6,0.6 2.95,1.52 3.95,2.51c1.52,0.16 3.43,0.49 5.32,0.92c3.75,0.84 3.67,1.51 5.07,1.78c0.57,0.11 2.14,0.23 3.71,0.36c1.68,0.14 6.5,1.02 7.46,2.05c0.87,0.94 -0.02,2.63 0.03,4.47c0.04,1.71 0.9,4.72 -0.26,6.75c-0.38,0.65 -1.12,0.98 -1.85,1.11zm-26.08,-9.12c-0.22,1.07 -1.15,1.34 -1.16,0.53c-0.01,-2.29 -2.41,-3.45 -4.95,-3.68c-0.68,-0.06 0,-0.55 0.7,-0.62c2.43,-0.23 5.94,1.31 5.41,3.77zm-20.73,20.45c-0.86,4.88 1.79,5.19 1.93,8.8c1.77,0.33 3.71,-0.95 4.78,-2.63c0.17,-0.28 0.34,0 0.19,0.62c-0.64,2.53 -3.87,5.01 -6.99,3.92c1.4,-3.29 -2.66,-6.46 -0.48,-10.48c0.43,-0.79 0.63,-0.64 0.57,-0.23zm8.73,13.25c0.28,-0.35 0.53,-0.25 0.43,0.09c-2.44,8.11 3.55,8.69 4,15.67c2.49,-0.67 3.61,-2.68 4.43,-5.08c0.19,-0.65 0.52,-0.29 0.48,0.58c-0.1,1.8 -0.6,3.27 -1.17,4.14c-1.03,1.56 -3.36,3.51 -6.33,3.02c1.89,-6.1 -3.25,-8.37 -3.26,-13.84c-0.01,-1.28 0.5,-3.52 1.42,-4.58zm31.76,14.61c-0.2,-0.28 -0.21,-0.81 0.86,0.17c4.85,4.44 0.07,12.18 3.33,16.01c-4.47,1.75 -8.75,-1.34 -9.25,-3.98c-0.23,-1.29 0.7,0.44 1.93,1.25c1.04,0.69 3.05,1.39 4.1,1.15c-1.25,-4.76 2.61,-8.79 -0.97,-14.6z" fill="#FFFFFE" fill-rule="evenodd"/>
</svg>