<svg width="185" height="180" xmlns="http://www.w3.org/2000/svg">
  <path fill-rule="evenodd" clip-rule="evenodd" d="M149.131 71.339v34.868H184l-34.869-34.868z" fill="#009EE0"></path>
  <path fill-rule="evenodd" clip-rule="evenodd" d="M149.131 106.207H184V71.339h-34.869v34.868zm1.017-1.016h32.835V72.356h-32.835v32.835zM48.9 175.507c.644.198 1.34.584 1.671 1.093.813-.969 1.928-3.248 1.442-5.347-1.526 0-2.937 2.385-3.112 4.254zm3.915-6.46c.58 1.127.895 3.11.73 4.322.214.022.482.107.724.212.473-1.176.959-4.014-.097-5.892-.495.082-1.22.616-1.357 1.358zm3.756 1.423c.622-1.827.44-4.041-.212-4.904-.164-.223-1.11.305-1.275.963.52.888 1.022 2.713.968 3.843a1.3 1.3 0 01.52.098zm43.426-2.525c.852.138 1.657.484 2.126.781.415-.69 1.466-3.488.863-5.02-1.728.164-3.017 3.011-2.989 4.239zm3.957-6.09c.427.763.776 2.28.802 3.241.227.017.515.017.721.075.621-1.869.416-4.141-.206-4.97-.376-.124-1.033.863-1.317 1.654zm3.517-1.35c.207-1.046 0-2.995-.556-3.721-.39-.245-.848.496-1.047 1.384.45.65.992 1.663 1.109 2.337.166-.016.317-.016.494 0zm-39.893-54.438c-2.422.89-5.455 2.945-5.546 3.522-.204 1.334-.285 3.261-.285 4.699 1.58-.912 2.029-2.551 3.805-3.96 3.203-2.515 4.759-2.88 4.589-3.248-.37-.676-1.87-1.013-2.563-1.013zm34.709 47.312c-4.833-.504-9.489 3.833-12.535 1.917-1.387-.872-3.242-2.872-4.6-4.865-.855-1.241-3.26-4.829-3.04-6.27.09-.602 1.048-1.044 2.734-2.116 2.946-1.858 5.593-3.726 8.045-5.71 2.985-2.404 7.579-6.042 7.623-10.763.032-3.251-2.118-6.79-3.796-8.963-2.948-3.817-8.024-7.448-12.863-10.205-2.127-1.207-6.1-3.282-8.578-4.264-2.437 1.368-3.64 1.739-5.705 2.85 1.515.61 2.76 1.587 2.514 2.42-.153.519-.535.633-2.347 1.834-1.059.708-2.357 1.729-2.96 2.28-1.334 1.225-2.064 2.583-3.198 3.934-.688.814-1.124 1.118-1.817 1.636-.006.682-.045 1.311-.086 2.174 7.894.221 15.036 2.501 18.479 6.914.492.633 1.255 1.726 1.562 2.539 1.55 4.117-1.08 7.473-3.287 8.931-2.193 1.448-7.192 2.331-8.602 3.662-1.085 1.022-1.183 2.872-2.474 4.468-.578.725-1.263 1.153-2.075 1.621.44.833 2.129 1.564 3.334 1.433.467-.453.935-.765 1.418-1.498.369-.56.693-1.457.667-2.445-.006-.247.342-.519.498.303.784 4.1-3.978 4.577-3.12 9.161.873-.584 2.27-1.281 3.769-.903.376-.8.914-1.27 1.348-1.952.261-.411.569-1.054.53-2.23-.01-.297.391-.411.555.625.472 2.955-2.655 3.704-1.363 8.378.842-.724 2.082-1.044 3.274-1.013.31-.667 1.066-1.342.885-2.822-.04-.328.312-.657.571.436.52 2.189-1.327 3.011-.379 5.899 3.293-1.33 4.134 1.048 5.594 2.922.833 1.081 1.932 2.774 2.8 3.441 2.212 1.695 8.401.238 13.095.732.303-2.552 1.955-4.831 3.967-5.308-.951-3.161-5.124-3.91-7.182-1.794-.312.321-.117-.528.492-1.044 1.975-1.664 5.515-1.153 7.263 1.135.348-.866 1.023-1.622 1.541-1.644-1.479-3.146-5.79-3.848-8.159-1.918-.185.147-.246-.266.411-.841 1.831-1.605 5.748-1.49 8.057.971.158-.896.624-1.564 1.09-1.564-.637-1.029-2.38-2.328-3.95-2.484zm26.062-67.49c-1.496 1.01-1.501 3.382-1.241 4.888.792-.138 1.448-.115 2.143.103.476-1.568-.006-4.08-.902-4.99zm2.803 1.108c.034-1.795-.942-4.295-2.002-5.207-.513.081-.618 1.295-.561 2.097 1.007.873 1.68 2.146 2 3.205.194-.042.41-.09.563-.095zm-1.574-6.525c.72.75 1.459 1.85 1.807 2.815.119-.03.32-.082.449-.082.087-1.275-.707-3.55-1.758-4.457-.452-.124-.616 1.138-.498 1.724zm-5.984-42.384c-1.014-1.578-3.111-2.182-4.2-2.08-.382 1.54 1.616 3.319 2.957 3.816.431-.982.859-1.475 1.243-1.736zm-2.653-3.985c-.956-.927-3.416-2.07-5.184-1.487-.143.718.852 1.681 1.571 2.112.867-.327 2.088-.469 3.401-.167.053-.138.121-.278.212-.458zm-9.811 4.809c-.654-1.802-.537-3.14.182-4.695.351-.76 1.155-1.62 1.699-2.029-.95-.212-1.308-.704-1.427-1.135-5.17 2.763-2.477 8.114-3.008 12.879-.33 2.963-4.096 4.02-6.575 5.57-2.132 1.334-4.22 2.768-5.691 4.271 2.668 6.311.84 7.696 3.818 10.742-.506.61-1.46 1.034-2.159 1.037-.042 2.673-.279 5.095-.966 7.484 2.177-.884 3.796.582 5.611-1.184-1.669-1.27-1.738-3.627-1.311-4.94.25-.76.573-.667.573-.456 0 .383.049.73.136.977.969.25 3.024.347 4.384-.544-2.323-3.97 2.121-7.463 5.487-9.659 2.334-1.522 5.701-3.203 7.366-5.452 2.247-3.028 1.143-6.32 2.585-10.807-1.696-.848-3.94-2.525-3.693-4.927-1.783.224-3.878 2.431-2.729 6.17.192.647-.203.46-.577-.145-1.461-2.74-.158-5.87 1.508-6.786-.936-.595-1.715-1.762-1.618-2.383-2.703.982-3.559 3.326-2.974 6.441.093.459-.291.473-.621-.43zm5.645-8.444c-.956-.452-2.777-.693-4.02.025-.407.358.104.853 1.276 1.093a6.883 6.883 0 012.672-.638c0-.191.026-.264.072-.48zm-33.389-4.52c-.102-.05-.178.18-.334.424a6.31 6.31 0 01-1.112 1.302c.505-.03 1.483.038 1.939.142.057-.676-.341-1.797-.493-1.867zm-10.169 1.68c.62 2.07 4.31.105 7.19-.093.907-.747 1.609-1.502 1.99-2.167-3.514-.703-7.4-.247-9.18 2.26zm10.924-6.646c.281.654.47 1.386.51 1.658.04.286.027.538.178.46.503-.25 1.357-1.386 1.5-2.17-.6.105-1.675.087-2.188.052zM72.55 25.674c2.42-2.007 5.925-2.762 11.066-1.88-.044-.88-.536-2.16-.95-2.774-5.145-.848-10.01-.93-10.116 4.654zm-15-23.54c-7.703-.234-10.384.977-15.113 1.179-.91-.024-1.634-.27-1.912-.396-.226.523-.313 1.838-.01 2.468-2.6 1.553-2.905 4.591-6.331 4.041-.22.937.358 2.22 1.015 2.7.35-.137 1.074-.39.965-.038-1.383 3.917-1.11 5.597-1.46 7.57-.207 1.18-1.888 2.267-3.42 2.567-.11 1.042.556 2.61 2.012 2.872.875-1.776 2.168-2.05 1.944-1.506-.373.903-.68 2.512-.707 3.665-.092 3.873.895 7.793 2.13 10.666 2.407 5.596 5.394 10.066 1.243 12.687.54 1.3 3.225 2.204 5.208 1.41.824-2.16.303-3.777.192-4.311-.036-.188.148-.228.353-.063 1.21 1.017 1.28 3.017 1.047 4.604-.613 4.207-4.21 9.41-1.725 14.303.741-.677 1.888-1.23 2.93-1.462.17-2.555.977-4.358 2.459-5.432.87-.63 1.02-.232.783.033-1.828 2.23-1.702 6.425-1.214 10.19.61 4.703-.874 7.468-2.288 8.21 1.74 1.096 4.628.433 6.115-.342 1.09-.567 2.778-1.973 3.422-3.26-1.644-2.818-1.75-5.456-1.332-7.152.344-1.396 1.124-1.879.978-1.207-1.05 5.93 4.596 8.65 4.47 14.428 2.927-.963 4.202-4.491 3.965-7.81.052-.447.404-.223.567.226 1.661 4.729-1.352 11.319-6.946 10.745.785-2.795-.132-6.072-.944-7.663-.717 1.474-2.078 2.713-3.372 3.443-.173 1.471-.504 2.762-.76 3.833-.924 3.875-2.546 6.573-4.958 9.041-5.273 5.4-7.226 5.836-10.671 10.839-.752.773-3.03 2.008-4.346 2.526-10.437 4.108-19.186-1.482-18.49-12.665.28-4.492 2.627-10.409 4.498-14.684 5.469-12.503 10.615-22.96 11.273-32.497.541-7.842-2.833-15.66-10.991-15.743-5.544-.056-10.886 4.49-11.003 13.606-.069 5.372.055 9.43-2.25 13.096-.488.785-.731 1.172-1.395 2.03 3.177.528 6.533-1.269 8.769-3.828.212.379.553.982.697 1.567 2.353-2.252 2.726-6.404 1.857-9.698 1.533.443 2.912-.491 3.46-1.789-3.539-.467-5.906-3.825-5.349-7.507.332-2.176 2.257-4.555 4.866-4.861 6.804-.803 8.8 6.093 8.707 12.633-.121 8.29-5.13 17.452-9.568 26.743-3.572 7.48-7.625 15.073-8.037 22.175-.458 7.884 3.153 21.973 22.777 18.92.787-2.289 1.757-3.177 2.343-2.913.19.098.05.459-.058 1.194-.354 2.427-.475 3.941-.354 6.534.229 5.103 2.453 10.203 2.714 13.891.413 5.832-2.603 6.508-7.376 7.043-2.005.23-4.993.156-6.818 1.03-1.06.509-1.758 3.141-2.793 4.467-1.018 1.308-2.42 1.958-4.121 2.289.517 1.316 2.286 2.263 4.21 2.312.697-.519 1.46-1.762 1.783-3.244.066-.303.442-.525.401.619-.102 3.067-2.936 6.417-6.1 6.897.57 1.464 2.812 2.576 4.564 2.367 1.372-.732 2.46-2.038 2.962-3.892.129-.525.464-.287.443.403-.04 1.829-.985 3.325-2.227 4.47-1.244 1.142-2.048 2.667-1.643 4.452.82-.411 2.406-.494 3.595-.231.605-.567 1.452-1.514 1.696-2.88.082-.454.546-.355.465.717-.19 2.541-2.287 3.71-1.752 6.115 4.996-2.388 5.543 6.484 9.428 9.158 3.22 2.213 9.192.889 14.622 1.275.39-2.386 1.915-4.83 4.032-5.282-.905-3.417-4.865-3.285-6.678-2.108-.393.263-.279-.262.165-.632 2.2-1.631 5.386-1.13 6.907.757.37-.692 1.106-1.261 1.701-1.359-1.562-3.258-5.292-3.876-7.99-2.221-.488.319-.347-.393.513-.89 3.234-1.876 6.66-.411 8.182 1.984.31-.511.98-1.144 1.493-1.103-.885-2.116-3.189-3.613-6.123-3.555-5.095.09-9.387 3.474-11.252.864-2.1-2.962-4.707-8.334-4.91-14.756 0-.542.02-1.053.504-1.226 3.945-.894 7.672-1.639 11.003-2.714 3.583-1.17 7.15-2.404 9.715-5.416 2.732-3.2 3.478-10.426 3.943-16.285.222-2.8.497-6.947.713-10.017.346-4.914 1.383-8.057 3.307-8.955.489-.228.733.01.354.687-.49.813-.896 2.327-1.087 3.708.858-.674 1.964-1.406 2.732-1.824 2.523-1.368 4.211-2.108 6.994-3.563 2.656-1.393 5.198-3.243 7.095-4.727 1.202-.944 2.597-2.072 3.797-3.692a6.9 6.9 0 01-.751-1.262c-1.354 1.827-4.14 3.341-6.331 3.153.58-1.835-.086-4.401-1.626-5.67-1.704-1.399-2.77-2.183-3.843-3.363-3.58-3.918-.526-12.19-4.197-17.18-.259-.513.299-.375.901.194 2.136 2.022 2.542 5.131 2.981 8.25.334 2.34.47 5.13 1.584 6.878 1.983 3.115 6.5 3.798 6.302 8.489 1.439-.379 3.211-1.77 3.281-2.996-.067-.56-.345-1.822-1.11-2.393-.186-.144-.068-.43.502-.25 1.063.332 1.585 1.64 2.04 2.601.493 1.041 1.004 1.983 1.729 2.825 1.304 1.504 2.905 2.271 3.127 4.714 1.207-.377 2.818-1.62 2.964-3.234-.643-1.819-.226-3.532-2.123-4.789-.248-.165-.135-.583.893-.157 2.418 1.013 2.052 3.902 3.225 5.482.782 1.052 1.719 1.94 3.31 2.294.166-1.479.799-3.077 2.112-3.924-.124-.824-.25-1.317-1.18-2.042-.248-.196-.202-.592.851-.058 2.192 1.112 1.55 4.23 4.481 5.474.834-2.585 3.989-1.694 6.984-.922 1.493.387 3.326.84 4.928.922 5.948.289 6.938-3.711 12.155-5.005-.374-2.598.163-4.982 1.829-5.977-2.18-2.575-5.785-1.257-7.008.504-.271.353-.237-.268.18-.869 1.568-2.367 4.747-2.611 6.684-1.48-.04-.811.272-2.137.766-2.17-1.425-1.6-5.604-2.255-7.867.48-.274.31-.207-.284.123-.77 1.652-2.254 5.377-2.893 7.902-1.011-.023-.528.251-1.666.866-1.694-1.066-1.26-3.19-2.002-5.27-1.793-5.993.6-7.631 7.212-14.093 6.67-1.494-.125-2.94-1.083-5.832-2.076-1.516-.522-3.376-1.036-5.061-1.431-4.626-1.082-8.92-1.14-11.302-4.255-.805-1.05-1.501-2.319-1.772-4.186-.145-.862.192-1.253.432-.678 1.42 2.787 2.9 5.37 6.42 6.054 1.44-2.739 2.52-7.408 2.342-11.448-1.533-.69-1.522-1.383-2.016-1.592.22 3.07-.934 6.276-1.892 7.234-.44-2.876-2.832-5.006-5.293-5.672-.316-.086-.357-.602.983-.513.901.062 3.021.62 3.954 1.855.85-2.96.34-5.731-.707-8.42-.566-1.459-1.92-3.36-3.423-4.461-.327-.24-.191-.61.876-.06 2.737 1.41 4.843 4.172 5.31 8.004 1.445.845 2.05 2.735 4.082 2.194-1.74-1.947-.87-5.206-3.611-9.949-1.457-2.523-3.41-4.338-6.695-5.948-4.05-1.986-8.929-3.384-12.053-4.635-3.276-1.312-5.09-2.763-5.52-7.484-1.098-.493-1.74-1.2-2.392-2.02-.597.52-.964 1.665-.989 2.411-2.126-1.026-3.262-3.186-3.461-5.075-.666.098-2.014 3.94-6.938 2.102 2.925-3.055-1.085-5.464 2.074-9.099.591-.737 1.483-.923 1.091-.375-2.878 4.114.593 5.533-.753 8.223 3.12.293 3.307-3.83 6.044-3.764-.378 1.826.048 4.313 1.157 5.09.656-1.154 1.459-1.913 2.668-2.379.532 2.26 2.128 3.47 4.079 3.904 2.946.652 6.26-1.09 8.667-.748 1.454.205 2.751 1.056 3.27 2.28 1.203-1.176 2.302-5.632 1.825-5.963-4.689-2.93-12.292 3.343-14.512-1.96-.393-.938-.584-2.133-.418-3.197.655-4.282 3.493-6.351 8.59-5.981 2.237.163 7.139 1.216 8.446.247 1.084-.804.786-3.828.129-5.15-1.318-.353-2.845-1.24-2.766-2.21.08-.864.882.952 2.637.409.491-.223.76-1.998.44-2.107-2.817-1.05-6.693-1.712-10.119-1.352-.507 1.531-1.713 1.687-1.815 2.86-.176 2.012-.805 3.666-1.659 4.324-.331.222-.31-.118-.115-.755.242-.785.518-2.094.152-2.904-.782-1.712-4.138-1.473-4.213-3.367-.05-.772.402-.687 3.721.088 1.404.325 1.545.347 1.746-.084.553-1.24-1.351-1.904-3.029-2.31-5.05-1.218-9.703-1.059-11.677-.294 1.994.947 2.51 2.852 1.879 3.761-.435.58-.124-.941-2.367-2.292-2.45-1.475-6.775-1.713-7.62-.524-.475.671-.609 2.663-.461 3.567.25 1.553.75 3.075 2.468 4.225 2.36 1.58 3.949.703 3.728 1.206-.498 1.07-3.575.92-5.376-.512-1.496-1.187-2.605-2.755-2.897-4.982-.205-1.583.006-3.964.73-4.824.98-1.16 3.765-1.416 6.367-.906 2.095-.642 4.866-1.047 6.996-.897-1.49-1.249-4.442-1.89-7.054-1.97zm30.127 19.064c-.51 1.053-1.408 2.406-2.37 2.865 1.523.272 4.113.812 6.025.606 2.389-.26 3.825-2.476 2.553-4.726-.09-.157-.048-.607.542-.286 2.958 1.598 2.345 5.916-.74 7.02-2.945 1.055-6.607-.53-9.192-.959.385.694.653 1.576.705 2.08.723.194 2.525.711 2.457 1.382-.26 2.041-.648 4.491-1.495 6.383-.755 1.685-2.12 3.635-3.788 3.855.34-5.837-6.164-1.81-9.84-3.018-.33 4.152 6.18 5.255 13.137 8.23 3.622 1.552 7.17 3.472 9.532 7.075 2.752-2.093 5.083-3.35 8.727-5.201 1.368-.695 2.63-1.33 2.893-2.627.21-1.028.098-3.742-.118-5.358-1.087-8.101 6.783-12.567 12.081-8.455-.145.238-.296.61-.333 1.003 1.639.42 3.38 1.48 4.492 2.56-.347.396-.615.814-.779 1.296 1.315.57 3.048 1.993 3.6 3.426-.659.577-1.434 1.758-1.716 2.353-.991 2.08-1.001 4.717-1.446 7.093-.389 2.065-1.181 4.367-2.504 5.932-2.881 3.405-8.798 5.295-11.719 8.881-.995 1.224-1.004 3.852.718 4.473-1.65 2.075-4.405 2.401-6.18 2.185.309 1.3 1.769 2.027 2.511 2.1-2.477 4.95-6.855 2.475-8.984 3.82a13.377 13.377 0 01-.553 1.464c3.599.62 7.418 1.893 9.597 2.777 1.908.777 4.806 2.48 7.512 1.487 1.651-.607 3.218-2.3 4.714-3.429 1.988-1.498 4.191-3.214 8.364-2.718 3.706.441 7.618 3.967 7.299 9.718a3.598 3.598 0 00-1.081 0c.171.881.393 2.829.226 4.005a3.83 3.83 0 00-1.303.016c.085 1.065-.221 3.251-.933 4.55-1.062-.353-2.66-.618-4.062-.165-3.909 1.26-6.508 5.482-12.699 4.964-1.457-.125-3.337-.453-4.799-.79-1.383-.311-3.377-1.053-4.336-.915-1.121.159-1.188.88-1.396 2.091-2.745-.459-4.37-2-4.78-3.561-1.218.871-1.118 2.443-1.14 3.858-2.366-.214-4.52-1.087-5.709-2.797-.855 1.72-3.075 3.364-5.663 3.3.158-1.08-.015-2.818-1.189-3.927-1.56 1.916-3.31 3.374-5.838 5.178 4.71 2.36 10.004 5.446 14.608 9.39 4.194 3.587 9.147 9.257 9.411 15.042.283 6.228-4.201 9.827-7.793 12.476-3.557 2.634-6.524 4.755-9.919 7.027-.316.198-.296.37-.21.624.815 2.363 2.028 4.692 3.38 6.421.767.986 2.303 2.798 3.834 2.84 2.359.074 5.71-2.076 8.409-2.414 5.898-.746 10.173 4.197 8.292 10.626a2.404 2.404 0 00-1.222-.232c.062 1.927-.583 3.96-1.136 5.071a3.741 3.741 0 00-1.405-.544c-.291 1.598-1.164 3.728-2.26 4.79-.768-.675-2.003-1.037-2.715-1.118-8.387-.347-12.26.764-15.25-1.171-.953-.616-2.018-2.27-2.875-3.398-.894-1.176-1.884-2.994-2.817-3.226-1.174-.289-1.904.173-2.505.781-.828-1.051-1.348-2.648-1.112-3.991-1.087-.269-2.381.65-3.128 1.391-.914-1.232-1.445-3.514-1.144-5.415-1.455-.328-2.876.644-3.66 1.565-1.43-2.33-1.133-4.88-.266-6.327-1.97-.397-3.688-1.762-4.372-3.672 3.346-1.424 3.814-3.572 4.92-5.959 1.457-3.151 10.76-3.506 11.743-7.95.315-1.415-.157-3.266-.66-4.198-2.496-4.638-10.416-6.103-17.2-6.054-.263 3.843-.676 7.126-1.435 9.973-.712 2.668-1.9 5.244-3.575 7.119-2.229 2.484-6.125 3.884-9.676 4.937-3.558 1.055-6.684 1.753-10.429 2.633-.616.066.305 6.429 2.227 10.551 1.046 2.237 1.438 3.448 3.304 3.167 2.324-.354 5.5-1.917 8.44-1.81 5.988.215 10.176 6.576 6.888 13.071-.385-.224-.673-.373-1.005-.431-.225 1.467-.849 2.913-1.447 3.886a4.302 4.302 0 00-1.345-.667c-.594 1.835-1.779 3.373-2.805 4.056-.745-.756-1.758-1.448-3.216-1.505-9.044-.34-12.946.988-16.62-2.353-1.2-1.097-2.146-2.889-2.933-4.717-1.536-3.563-2.756-5.52-5.394-2.92-1.086-1.639-1.21-3.704-.499-5.069-1.18-.381-2.787.14-3.746.614-.956-1.684-.834-4.441.198-5.799-2.485-.248-4.846-2.305-5.302-5.054 1.418.041 3.21-.715 4.208-1.702-2.307-.471-4.155-2.476-4.691-5.16 1.526 0 3.259-.34 4.232-1.096 2.196-1.719 1.505-5.176 4.906-6.312 4.08-1.366 12.062.478 12.293-4.617.1-2.131-1.459-6.204-2.123-8.746a33.682 33.682 0 01-1.1-8.64C12.149 117.87 6.12 105.402 6.65 95.279c.436-8.261 3.415-13.994 8.203-23.528 5.902-11.747 10.187-20.203 9.824-28.272-.166-3.68-1.521-8.016-4.263-8.782-5.235-1.466-7.236 4.471-4.696 7.529.858 1.031 2.516 1.789 4.502 1.585.067 2.733-1.323 4.41-3.259 4.866.675 5.005-1.375 9.228-4.947 11.184-.043-.575-.192-1.034-.341-1.588C9.106 60.279 3.586 62.385 0 59.963c1.057-1.208 1.598-1.839 2.279-2.776 1.403-1.925 2.574-4.244 2.742-6.906.176-2.782.29-5.507.346-7.782.174-7.174 4.938-14.587 13.694-13.935 7.376.546 11.556 6.572 11.935 14.636.437 9.296-4.26 19.965-10.62 34.873-2.528 5.917-4.88 12.075-4.69 16.827.236 5.836 4.14 9.923 9.652 10.066 3.361.081 7.512-1.539 9.253-3.309.243-.248.479-.593 1.42-1.9 4.205-5.835 12.825-9.605 13.339-18.803-2.886.886-6.601-.893-7.227-3.017 2.574-.951 4.413-3.04 3.774-8.4-.044-.501-.11-1.214-.135-1.831-1.424.238-2.59 1.253-3.264 2.347-4.679-4.826-2.261-10.987-.674-15.275-3.598.177-6.482-2.58-6.85-5.029 1.74-.227 2.835-1.498 2.792-3.025-.034-1.263-.919-3.18-1.612-4.689-1.982-4.317-3.898-8.656-3.789-14.542-2.576-1.215-3.71-4.226-3.636-6.597 2.21-.161 3.781-1.213 3.848-2.625.055-1.124.242-3.223.71-4.608-.843-.822-2.194-3.338-.868-6.291.942.219 2.422.26 3.32-.234.39-.218 1.152-1.579 2.45-2.527-.19-.92-.013-2.975 1.012-4.277.632.286 1.654.565 2.66.666 4.359.442 14.727-2.637 22.39.25 1.597.604 2.951 1.516 3.947 2.512 1.522.163 3.433.49 5.318.915 3.752.84 3.676 1.515 5.076 1.788.569.11 2.14.222 3.712.357 1.675.143 6.498 1.021 7.453 2.048.869.94-.02 2.628.03 4.473.044 1.704.9 4.719-.26 6.746-.376.654-1.117.984-1.85 1.109zm-26.073-9.122c-.229 1.076-1.16 1.342-1.165.538-.01-2.292-2.413-3.458-4.953-3.684-.673-.062-.001-.551.7-.617 2.429-.232 5.94 1.303 5.418 3.763zm-20.736 20.45c-.86 4.887 1.792 5.198 1.935 8.8 1.764.334 3.705-.949 4.773-2.63.177-.28.343.005.188.624-.63 2.528-3.867 5.009-6.983 3.923 1.402-3.29-2.66-6.463-.487-10.484.43-.787.636-.636.575-.233zm8.73 13.258c.283-.352.53-.257.429.09-2.435 8.105 3.548 8.682 4.004 15.67 2.486-.67 3.603-2.682 4.423-5.081.193-.648.527-.29.48.578-.098 1.803-.595 3.269-1.166 4.136-1.025 1.559-3.362 3.513-6.326 3.02 1.883-6.097-3.25-8.366-3.266-13.84-.003-1.274.507-3.515 1.422-4.573zm31.757 14.61c-.197-.286-.21-.815.865.169 4.852 4.442.07 12.18 3.325 16.006-4.468 1.747-8.745-1.337-9.245-3.975-.233-1.296.698.434 1.93 1.249 1.034.686 3.047 1.392 4.1 1.15-1.253-4.759 2.612-8.796-.975-14.599z" fill="#000"></path>
</svg>